# xmcd CD database file
#
# Track frame offsets:
#	150
#	2463
#	21750
#	39657
#	63000
#	83377
#	100672
#	118511
#	137400
#	158310
#	175541
#	196229
#
# Disc length: 2885 seconds
#
# Revision: 0
# Processed by: cddbd v1.5.1PL0 Copyright (c) Steve Scherf et al.
# Submitted via: CDex 1.51
#
DISCID=730b430c
DTITLE=The Peppercorns - Days Of Grace
DYEAR=2005
DGENRE=Country
TTITLE0=Intro
TTITLE1=Silently She Sleeps
TTITLE2=Drifting
TTITLE3=Angel
TTITLE4=Only Heaven Knows
TTITLE5=Days Of Grace
TTITLE6=Six Out Of Ten
TTITLE7=Desperate For Love
TTITLE8=The Promise
TTITLE9=Secret Affair
TTITLE10=Julie Anne
TTITLE11=Only Heaven Knows (Reprise)
EXTD=YEAR: 2005
EXTT0=
EXTT1=
EXTT2=
EXTT3=
EXTT4=
EXTT5=
EXTT6=
EXTT7=
EXTT8=
EXTT9=
EXTT10=
EXTT11=
PLAYORDER=
